<?xml version="1.0" encoding="UTF-8" standalone="no"?>
<svg width="586px" height="219px" viewBox="0 0 586 219" version="1.1" xmlns="http://www.w3.org/2000/svg" xmlns:xlink="http://www.w3.org/1999/xlink" xmlns:sketch="http://www.bohemiancoding.com/sketch/ns">
    <!-- Generator: Sketch 3.1.1 (8761) - http://www.bohemiancoding.com/sketch -->
    <title>business-class-logo-white</title>
    <desc>Created with Sketch.</desc>
    <defs>
        <rect id="path-1" x="0" y="0" width="152.941176" height="103.888889" rx="10.8094832"></rect>
    </defs>
    <g id="Page-1" stroke="none" stroke-width="1" fill="none" fill-rule="evenodd" sketch:type="MSPage">
        <g id="Assets" sketch:type="MSArtboardGroup" transform="translate(-82.000000, -531.000000)">
            <g id="BC-and-Gold" sketch:type="MSLayerGroup" transform="translate(20.000000, 440.000000)">
                <g id="Business-Class-Logo">
                    <g id="Logo" transform="translate(62.000000, 91.000000)">
                        <g id="Bottom-Row" transform="translate(53.823529, 158.888889)" fill="#FFFFFF" sketch:type="MSShapeGroup">
                            <path d="M0,6.11111111 L0,58.0555556 L20.4724409,58.0555556 C25.4400185,58.0555556 29.8807318,57.0016103 33.1924502,54.3667472 C36.127837,52.0330113 38.2352941,48.3442029 38.2352941,42.6980676 C38.2352941,36.2238325 35.5257063,31.9327697 28.7517369,30.7282609 C34.6225104,29.147343 37.2568319,24.4045894 37.2568319,18.6078905 C37.2568319,14.0909823 35.676239,11.0797101 33.0419176,9.12238325 C30.3323298,7.01449275 26.3432145,6.11111111 21.7519685,6.11111111 L0,6.11111111 Z M12.2352941,36.6666667 L19.9074253,36.6666667 C23.9691418,36.6666667 26,37.8125 26,42.3958333 C26,44.9166667 25.3982642,46.5208333 24.3452266,47.5138889 C23.292189,48.5069444 21.6374156,48.8888889 19.4561234,48.8888889 L12.2352941,48.8888889 L12.2352941,36.6666667 Z M12.2352941,15.2777778 L19.6484429,15.2777778 C21.2318339,15.2777778 22.5273356,15.5174292 23.2470588,16.2363834 C23.966782,16.9553377 24.4705882,18.2334786 24.4705882,20.5501089 C24.4705882,26.1419753 21.5916955,27.5 17.5612457,27.5 L12.2352941,27.5 L12.2352941,15.2777778 Z M79.5294118,58.5959741 L79.5294118,19.8611111 L67.6,19.8611111 L67.6,35.7348099 C67.6,44.6210431 64.1588235,48.7223816 60.7941176,48.7223816 C58.4235294,48.7223816 57.8117647,46.8236138 57.8117647,44.0134374 L57.8117647,19.8611111 L45.8823529,19.8611111 L45.8823529,45.8362545 C45.8823529,54.7224878 49.6294118,59.5833333 57.0470588,59.5833333 C62.3235294,59.5833333 65.9941176,57.1529106 68.4411765,52.6718186 L68.4411765,58.5959741 L79.5294118,58.5959741 Z M115.545334,22.7303523 C112.478844,19.5257453 107.342474,18.3333333 102.512752,18.3333333 C93.7732567,18.3333333 86.4136813,22.2086721 86.4136813,30.1829268 C86.4136813,43.7466125 105.119269,41.0636856 105.119269,46.2804878 C105.119269,48.7398374 103.202713,49.3360434 100.519534,49.3360434 C96.8397464,49.3360434 93.5432699,48.2926829 91.1667404,46.0569106 L85.6470588,53.2113821 C88.8668731,56.7140921 94.5398791,58.0555556 99.8295739,58.0555556 C107.955772,58.0555556 116.235294,54.8509485 116.235294,45.7588076 C116.235294,32.1205962 97.6063689,34.4308943 97.6063689,29.7357724 C97.6063689,27.798103 99.0629515,27.0528455 101.74613,27.0528455 C104.659295,27.0528455 107.495798,27.8726287 110.025652,29.8102981 L115.545334,22.7303523 Z M123.882353,19.8611111 L123.882353,58.0555556 L136.117647,58.0555556 L136.117647,19.8611111 L123.882353,19.8611111 Z M122.352941,6.91176471 C122.352941,10.8088235 125.345269,13.75 129.235294,13.75 C133.200128,13.75 136.117647,10.8823529 136.117647,6.91176471 C136.117647,2.94117647 133.200128,0 129.235294,0 C125.345269,0 122.352941,3.01470588 122.352941,6.91176471 Z M145.294118,19.3206926 L145.294118,58.0555556 L157.085609,58.0555556 L157.085609,42.4856597 C157.085609,33.5994264 160.465336,29.3461865 164.220588,29.3461865 C166.473739,29.3461865 167.07458,30.9411515 167.07458,34.0551307 L167.07458,58.0555556 L178.941176,58.0555556 L178.941176,32.1563629 C178.941176,23.3460803 175.110819,18.3333333 167.67542,18.3333333 C162.418067,18.3333333 158.58771,20.9156575 156.259454,25.2448481 L156.259454,19.3206926 L145.294118,19.3206926 Z M215.313126,46.0903427 C212.471359,48.711838 209.015155,50.2538941 204.944516,50.2538941 C199.337786,50.2538941 198.416132,47.2468847 198.339327,42.1580997 L221.457488,41.9267913 C221.687901,40.076324 221.764706,38.8426791 221.764706,37.3006231 C221.764706,26.4291277 217.847675,18.3333333 205.174929,18.3333333 C198.72335,18.3333333 194.499101,20.415109 191.734138,23.2679128 C187.893912,27.2772586 186.588235,33.2912773 186.588235,39.7679128 C186.588235,47.555296 188.431544,52.4898754 191.887747,55.5739875 C194.883124,58.1954829 199.107372,59.5833333 204.560493,59.5833333 C211.4729,59.5833333 216.849217,57.5015576 221.227074,53.029595 L215.313126,46.0903427 Z M198.823529,35.1388889 C198.982429,30.4891304 200.253629,27.5 205.258976,27.5 C210.184874,27.5 210.979374,30.2400362 211.058824,35.1388889 L198.823529,35.1388889 Z M256.251216,22.7303523 C253.184727,19.5257453 248.048356,18.3333333 243.218635,18.3333333 C234.479139,18.3333333 227.119564,22.2086721 227.119564,30.1829268 C227.119564,43.7466125 245.825151,41.0636856 245.825151,46.2804878 C245.825151,48.7398374 243.908595,49.3360434 241.225416,49.3360434 C237.545629,49.3360434 234.249152,48.2926829 231.872623,46.0569106 L226.352941,53.2113821 C229.572755,56.7140921 235.245761,58.0555556 240.535456,58.0555556 C248.661654,58.0555556 256.941176,54.8509485 256.941176,45.7588076 C256.941176,32.1205962 238.312251,34.4308943 238.312251,29.7357724 C238.312251,27.798103 239.768834,27.0528455 242.452012,27.0528455 C245.365178,27.0528455 248.201681,27.8726287 250.731535,29.8102981 L256.251216,22.7303523 Z M289.898275,22.7303523 C286.831785,19.5257453 281.695415,18.3333333 276.865694,18.3333333 C268.126198,18.3333333 260.766622,22.2086721 260.766622,30.1829268 C260.766622,43.7466125 279.47221,41.0636856 279.47221,46.2804878 C279.47221,48.7398374 277.555654,49.3360434 274.872475,49.3360434 C271.192688,49.3360434 267.896211,48.2926829 265.519682,46.0569106 L260,53.2113821 C263.219814,56.7140921 268.89282,58.0555556 274.182515,58.0555556 C282.308713,58.0555556 290.588235,54.8509485 290.588235,45.7588076 C290.588235,32.1205962 271.95931,34.4308943 271.95931,29.7357724 C271.95931,27.798103 273.415893,27.0528455 276.099071,27.0528455 C279.012236,27.0528455 281.848739,27.8726287 284.378594,29.8102981 L289.898275,22.7303523 Z M341.527319,42.4782135 C338.655894,45.6985294 335.104394,47.6456972 331.099512,47.6456972 C328.152523,47.6456972 326.490119,46.5972222 325.432225,45.1742919 C323.845385,43.077342 323.16531,39.5574619 323.16531,31.6938998 C323.16531,23.6805556 323.845385,20.0857843 325.12997,18.0637255 C326.187863,16.416122 328.152523,15.1429739 331.930714,15.1429739 C335.255522,15.1429739 338.731458,16.1165577 341.376192,18.587963 L348.025808,10.2750545 C343.869798,5.85648148 337.900256,4.58333333 332.308533,4.58333333 C324.827714,4.58333333 319.916066,6.83006536 316.666822,10.2750545 C311.755173,15.3676471 310.470588,23.3061002 310.470588,31.918573 C310.470588,39.7821351 311.528482,47.8703704 316.515694,52.8880719 C319.462683,55.9586057 323.920949,58.0555556 330.646129,58.0555556 C338.202511,58.0555556 344.020925,55.4343682 348.705882,49.9673203 L341.527319,42.4782135 Z M354.823529,0 L354.823529,58.0555556 L367.058824,58.0555556 L367.058824,0 L354.823529,0 Z M380.840949,30.8473783 C383.370226,28.3754682 386.282728,27.3712547 390.038322,27.3712547 C394.33043,27.3712547 395.786681,28.6844569 395.786681,33.0102996 L395.786681,34.0145131 L391.647863,34.0145131 C386.436018,34.0145131 381.377462,34.8642322 378.005092,37.1816479 C374.862656,39.3445693 373.176471,42.5889513 373.176471,47.3782772 C373.176471,51.3951311 374.326142,54.3305243 376.625486,56.4934457 C378.61825,58.3473783 381.530752,59.5833333 385.209701,59.5833333 C389.655098,59.5833333 393.717272,57.7294007 396.553129,53.5580524 L396.629774,58.5791199 L406.823529,58.5791199 L406.823529,33.4737828 C406.823529,22.3501873 401.611684,18.3333333 390.574836,18.3333333 C384.289964,18.3333333 378.924829,19.6465356 374.939301,23.9723783 L380.840949,30.8473783 Z M396.117647,42.7777778 C395.550448,48.3404558 390.202571,51.9444444 386.799377,51.9444444 C384.611609,51.9444444 383.882353,50.4558405 383.882353,47.9487179 C383.882353,43.3262108 386.475263,42.7777778 390.931827,42.7777778 L396.117647,42.7777778 Z M442.839452,22.7303523 C439.772962,19.5257453 434.636591,18.3333333 429.80687,18.3333333 C421.067374,18.3333333 413.707799,22.2086721 413.707799,30.1829268 C413.707799,43.7466125 432.413386,41.0636856 432.413386,46.2804878 C432.413386,48.7398374 430.49683,49.3360434 427.813652,49.3360434 C424.133864,49.3360434 420.837388,48.2926829 418.460858,46.0569106 L412.941176,53.2113821 C416.160991,56.7140921 421.833997,58.0555556 427.123692,58.0555556 C435.249889,58.0555556 443.529412,54.8509485 443.529412,45.7588076 C443.529412,32.1205962 424.900487,34.4308943 424.900487,29.7357724 C424.900487,27.798103 426.357069,27.0528455 429.040248,27.0528455 C431.953413,27.0528455 434.789916,27.8726287 437.31977,29.8102981 L442.839452,22.7303523 Z M476.48651,22.7303523 C473.420021,19.5257453 468.28365,18.3333333 463.453929,18.3333333 C454.714433,18.3333333 447.354858,22.2086721 447.354858,30.1829268 C447.354858,43.7466125 466.060445,41.0636856 466.060445,46.2804878 C466.060445,48.7398374 464.143889,49.3360434 461.460711,49.3360434 C457.780923,49.3360434 454.484446,48.2926829 452.107917,46.0569106 L446.588235,53.2113821 C449.80805,56.7140921 455.481056,58.0555556 460.77075,58.0555556 C468.896948,58.0555556 477.176471,54.8509485 477.176471,45.7588076 C477.176471,32.1205962 458.547545,34.4308943 458.547545,29.7357724 C458.547545,27.798103 460.004128,27.0528455 462.687307,27.0528455 C465.600472,27.0528455 468.436975,27.8726287 470.966829,29.8102981 L476.48651,22.7303523 Z" id="Business-Class"></path>
                        </g>
                        <g id="Top-Row" transform="translate(37.000000, 0.000000)">
                            <g id="Trello" transform="translate(183.529412, 0.000000)" fill="#FFFFFF" sketch:type="MSShapeGroup">
                                <path d="M264.649448,107.082074 C257.519878,110.805906 251.598571,120.72728 242.850656,126.507353 C242.275689,126.887255 241.700722,127.077206 241.317411,127.077206 C240.550789,127.077206 239.592511,126.317402 239.592511,122.898284 C239.592511,111.121324 243.425623,105.422794 246.683768,97.064951 C257.991449,68.002451 277.348666,43.1188725 294.597671,15.9558824 C295.93926,13.8664216 296.705882,11.5870098 296.705882,9.11764706 C296.705882,7.02818627 295.93926,5.31862745 294.980982,3.22916667 C294.214359,1.51960784 290.764558,0 286.931446,0 C284.823235,0 282.906678,0.18995098 280.415156,0.18995098 C271.407342,0.18995098 269.490786,13.2965686 267.382574,16.7156863 C253.008403,40.8394608 236.526021,70.6617647 228.093174,91.7463235 C226.285588,96.3665305 224.336328,100.986737 222.831442,105.723111 C213.711976,107.032214 207.318636,119.668503 196.968303,126.507353 C196.393336,126.887255 195.818369,127.077206 195.435058,127.077206 C194.668436,127.077206 193.710158,126.317402 193.710158,122.898284 C193.710158,111.121324 197.54327,105.422794 200.801415,97.064951 C212.109096,68.002451 231.466313,43.1188725 248.715318,15.9558824 C250.056907,13.8664216 250.823529,11.5870098 250.823529,9.11764706 C250.823529,7.02818627 250.056907,5.31862745 249.098629,3.22916667 C248.332006,1.51960784 244.882206,0 241.049093,0 C238.940882,0 237.024326,0.18995098 234.532803,0.18995098 C225.524989,0.18995098 223.608433,13.2965686 221.500221,16.7156863 C207.12605,40.8394608 190.643668,70.6617647 182.210821,91.7463235 C181.147541,94.464078 180.035239,97.1818324 178.993199,99.9232313 L178.993196,99.9232333 C169.854593,105.793072 161.840392,115.232981 150.555981,121.758739 C148.246398,123.100551 141.125182,128.084426 135.351223,128.084426 C134.003966,128.084426 132.849174,127.701051 131.694382,127.125988 C129.962194,126.359238 128.230007,122.717176 128.230007,121.567052 C128.230007,120.608614 128.422472,120.416927 130.347125,119.266802 C147.284071,109.107366 161.141573,94.5391178 173.074422,79.9708697 C177.501124,74.6036205 183.275083,64.0608094 183.275083,56.3933104 C183.275083,51.4094361 181.542895,45.6588119 175.576471,43.5502497 C171.342234,42.0167499 166.530601,41.25 162.681295,41.25 C152.480635,41.25 144.974488,45.8504994 140.740251,50.2593113 C136.757198,54.4943046 132.894568,58.8342414 129.274439,63.3126631 C125.234078,60.1916396 119.770904,58.854242 114.578431,58.854242 C108.158927,58.854242 96.0980392,66.7350566 89.873065,71.3482164 C88.9004128,72.1170764 88.3168215,72.5015064 87.9277606,72.5015064 C87.7332301,72.5015064 87.5386997,72.3092914 87.5386997,71.9248614 C87.5386997,71.7326464 87.9277606,70.0027115 87.9277606,66.9272716 C87.9277606,64.2362617 87.3441692,60.7763919 84.8152735,56.5476621 C84.2316821,55.5865871 80.7301342,53.4722222 76.4504644,53.4722222 C71.1981424,53.4722222 66.3348813,55.9710171 66.3348813,58.662027 C66.3348813,60.5841769 68.0856553,61.3530369 68.0856553,63.0829718 C68.0856553,64.0440468 67.3075335,68.4649916 66.1403509,72.6937214 C62.8333333,84.9954808 58.748194,97.1050253 54.4685243,109.21457 C52.1341589,115.942094 44.3529412,121.900759 44.3529412,129.204929 C44.3529412,131.511509 45.9091847,134.586949 48.0490196,136.893529 C51.5505676,140.737828 53.6904025,142.083333 56.8028896,142.083333 C58.1646027,142.083333 59.7208462,141.698903 61.0825593,140.545613 C64.000516,138.046819 65.5567595,135.548024 66.3348813,132.088154 C71.3926729,109.406785 85.9824561,94.0295854 102.128483,83.8421909 C107.575335,80.382321 114.967492,76.7302362 115.940144,76.7302362 C116.742879,76.7302362 117.909988,77.0248128 119.154422,77.3708507 L119.154422,77.3708507 C114.456882,84.8656155 110.654368,92.7819804 108.213615,101.248179 C107.443754,103.931804 107.058824,106.423741 107.058824,109.107366 C107.058824,113.516178 108.02115,118.116677 109.560872,122.525489 C111.677991,128.659488 115.142366,134.026737 119.953999,136.518675 C128.807403,141.119174 135.158757,143.611111 140.932716,143.611111 C144.204627,143.611111 146.706675,143.036049 149.40119,141.502549 C161.435477,134.721193 169.040414,129.496819 174.57397,124.868703 C175.005173,128.158057 176.172105,130.451956 178.952676,133.345588 C182.402477,136.954657 187.768834,140.183824 194.860091,141.703431 C196.010025,141.893382 197.159959,142.083333 198.309892,142.083333 C206.862588,142.083333 215.076023,134.820507 221.214196,128.01738 L221.214196,128.01738 C221.898859,129.832639 223.025095,131.462061 224.835029,133.345588 C228.28483,136.954657 233.651187,140.183824 240.742444,141.703431 C241.892378,141.893382 243.042312,142.083333 244.192245,142.083333 C253.332962,142.083333 262.086166,133.787496 268.332605,126.623207 C270.773963,130.555077 276.254071,134.394743 282.75,137.51826 C284.661765,138.461709 286.955882,139.027778 289.058824,139.027778 C297.279412,139.027778 303.205882,132.423639 307.794118,127.517707 C319.647059,114.686808 326.147059,98.8368747 331.117647,78.835768 C331.5,77.3262506 332.073529,76.7601815 332.838235,76.7601815 C334.75,76.7601815 337.235294,76.7601815 339.911765,76.3828021 C345.073529,75.6280434 349.088235,73.9298362 353.867647,73.1750775 C356.735294,72.6090084 356.352941,71.66556 359.029412,70.7221116 C360.941176,69.9673528 362.470588,69.2125941 362.470588,67.3256972 C362.470588,64.1179726 356.544118,60.7215582 347.558824,60.7215582 C340.485294,60.7215582 336.279412,61.2876273 333.411765,61.2876273 C329.014706,61.2876273 327.867647,59.9667995 325,52.6079017 C325,52.6079017 327.867647,59.9667995 325,52.6079017 C324.426471,51.0983842 323.852941,50.3436255 322.132353,48.834108 C318.117647,45.4376937 313.147059,44.3055556 309.132353,44.3055556 C299.573529,44.3055556 291.352941,53.9287295 285.617647,62.042386 C284.279412,63.9292829 282.367647,65.4388004 281.029412,67.5143869 C273.04515,79.3349933 265.405364,92.6855806 264.649448,107.082074 L264.649448,107.082074 Z M28.6372176,41.2146893 C29.2216506,41.2146893 29.6112726,41.4053672 29.6112726,41.9774011 C29.6112726,42.3587571 29.4164616,42.930791 28.0527846,45.7909605 C16.1693134,70.769774 7.98725117,96.1299435 0.779244017,124.159605 C0.584433013,124.922316 0,127.782486 0,130.642655 C0,133.312147 0.779244017,136.172316 3.50659808,137.69774 C8.76649519,140.748588 13.0523373,142.083333 15.9745023,142.083333 C20.2603444,142.083333 22.4032655,139.413842 22.4032655,135.028249 C22.4032655,131.214689 22.5980765,127.210452 23.1825095,124.159605 C28.6372176,96.1299435 36.8192798,74.2019774 49.4819951,51.3206215 C55.5211362,40.4519774 56.3003802,39.8799435 56.3003802,38.9265537 C56.3003802,38.5451977 56.1055692,37.9731638 55.7159472,37.4011299 C63.5083874,35.6850282 72.8593156,34.5409605 81.4309998,34.5409605 C82.4050548,34.5409605 86.3012749,35.8757062 86.8857079,36.4477401 C88.2493849,37.7824859 89.613062,39.1172316 91.950794,39.1172316 C93.898904,39.1172316 97.2106911,37.7824859 98.3795571,37.019774 C101.106911,35.1129944 102.470588,33.0155367 102.470588,29.5833333 C102.470588,26.3418079 90.197495,18.3333333 81.6258108,18.3333333 C71.1060166,18.3333333 61.5602773,19.6680791 52.5989711,21.3841808 C48.7027511,22.1468927 34.6763588,24.2443503 24.5461865,24.2443503 C14.8056363,24.2443503 15.3900693,22.9096045 11.2990382,22.9096045 C8.9613062,22.9096045 7.79244017,24.0536723 6.81838515,25.0070621 C5.84433013,25.960452 5.25989711,29.7740113 5.25989711,33.2062147 C5.25989711,34.9223164 5.25989711,36.2570621 6.23395214,37.4011299 C9.1561172,40.8333333 14.8056363,41.5960452 20.4551554,41.5960452 C25.3254306,41.5960452 28.0527846,41.2146893 28.6372176,41.2146893 Z M162.117647,56.1674528 C162.117647,57.9186321 161.547511,59.0860849 159.266968,62.7830189 C156.986425,66.4799528 157.936652,66.4799528 155.085973,70.3714623 C149.574661,77.9599057 142.733032,85.5483491 133.800905,93.9150943 C131.330317,96.25 130.950226,96.25 130.570136,96.25 C130.38009,96.25 130,96.0554245 130,95.6662736 C130,95.0825472 130.190045,94.3042453 132.090498,90.2181604 C137.9819,77.5707547 145.20362,69.2040094 153.18552,61.0318396 C157.556561,56.5566038 160.217195,55 161.167421,55 C161.737557,55 162.117647,55.1945755 162.117647,56.1674528 C162.117647,56.1674528 162.117647,55.1945755 162.117647,56.1674528 Z M312.098672,61.1111111 C312.296015,61.1111111 312.493359,61.297309 312.690702,61.6697049 C312.888046,62.2282986 313.282732,62.7868924 314.26945,63.531684 C315.058824,64.0902778 315.058824,66.6970486 315.058824,68.7452257 C315.058824,86.8064236 304.204934,101.702257 293.548387,116.784288 C291.180266,120.135851 289.798861,120.694444 288.614801,120.694444 C287.628083,120.694444 286.049336,118.273872 285.457306,116.784288 C284.667932,114.736111 284.470588,112.315538 284.470588,111.384549 C284.470588,96.8611111 299.074004,75.2621528 308.743833,63.3454861 C310.322581,61.297309 311.506641,61.1111111 312.098672,61.1111111 C312.098672,61.1111111 311.506641,61.1111111 312.098672,61.1111111 Z" id="Type"></path>
                            </g>
                            <g id="Business-Class-Mark" transform="translate(0.000000, 13.750000)">
                                <path d="M56.5125867,0 C49.7969999,0 44.3529412,5.43954348 44.3529412,12.1582568 L44.3529412,30.619521 C44.3529412,37.3343408 49.7953837,42.7777778 56.5125867,42.7777778 L93.3697663,42.7777778 C100.085353,42.7777778 105.529412,37.3382343 105.529412,30.619521 L105.529412,12.1582568 C105.529412,5.44343699 100.086969,0 93.3697663,0 L56.5125867,0 Z M59.1089723,10.6944444 C56.8721369,10.6944444 55.0588235,12.5096369 55.0588235,14.7495636 L55.0588235,26.5004364 C55.0588235,28.7400169 56.8707596,30.5555556 59.1089723,30.5555556 L90.7733806,30.5555556 C93.010216,30.5555556 94.8235294,28.7403631 94.8235294,26.5004364 L94.8235294,14.7495636 C94.8235294,12.5099831 93.0115933,10.6944444 90.7733806,10.6944444 L59.1089723,10.6944444 Z" id="Handle" fill="#E9EDF0" sketch:type="MSShapeGroup"></path>
                                <g id="Briefcase" transform="translate(0.000000, 19.861111)">
                                    <mask id="mask-2" sketch:name="Briefcase Frame" fill="white">
                                        <use xlink:href="#path-1"></use>
                                    </mask>
                                    <use id="Briefcase-Frame" fill="#E1E7EB" sketch:type="MSShapeGroup" xlink:href="#path-1"></use>
                                    <rect id="Rectangle-846" fill="#FFFFFF" sketch:type="MSShapeGroup" mask="url(#mask-2)" x="16.8235294" y="0" width="119.294118" height="103.888889"></rect>
                                    <rect id="Rectangle-845" fill="#7A8E99" sketch:type="MSShapeGroup" mask="url(#mask-2)" x="24.4705882" y="0" width="104" height="103.888889"></rect>
                                    <g id="Lists" mask="url(#mask-2)" fill="#FFFFFF" sketch:type="MSShapeGroup">
                                        <g transform="translate(36.705882, 12.222222)">
                                            <rect id="Left-List" x="0" y="0" width="33.6470588" height="73.3333333" rx="4.05355619"></rect>
                                            <rect id="Right-List" x="45.8823529" y="0" width="33.6470588" height="42.7777778" rx="4.05355619"></rect>
                                        </g>
                                    </g>
                                </g>
                            </g>
                        </g>
                    </g>
                </g>
            </g>
        </g>
    </g>
</svg>